<?xml version="1.0" standalone="no"?>
<!DOCTYPE svg PUBLIC "-//W3C//DTD SVG 1.1//EN" "http://www.w3.org/Graphics/SVG/1.1/DTD/svg11.dtd">
<svg t="1717333062635" class="icon" viewBox="0 0 1024 1024" version="1.1"
    xmlns="http://www.w3.org/2000/svg" p-id="2758" xmlns:xlink="http://www.w3.org/1999/xlink"
    width="25" height="25">
    <path
        d="M554.666667 512a42.666667 42.666667 0 0 1 42.666666-42.666667h170.666667a85.333333 85.333333 0 0 1 85.333333 85.333334v128a85.333333 85.333333 0 0 1-85.333333 85.333333h-128a85.333333 85.333333 0 0 1-85.333333-85.333333v-170.666667z m85.333333 42.666667v128h128v-128h-128zM170.666667 512a42.666667 42.666667 0 0 1 42.666666-42.666667h170.666667a85.333333 85.333333 0 0 1 85.333333 85.333334v128a85.333333 85.333333 0 0 1-85.333333 85.333333H256a85.333333 85.333333 0 0 1-85.333333-85.333333v-170.666667z m85.333333 42.666667v128h128v-128H256z"
        p-id="2759"></path>
    <path
        d="M725.333333 341.333333a85.333333 85.333333 0 0 0-85.333333 85.333334v85.333333a42.666667 42.666667 0 1 1-85.333333 0v-85.333333a170.666667 170.666667 0 0 1 170.666666-170.666667 42.666667 42.666667 0 1 1 0 85.333333zM341.333333 341.333333a85.333333 85.333333 0 0 0-85.333333 85.333334v85.333333a42.666667 42.666667 0 1 1-85.333333 0v-85.333333a170.666667 170.666667 0 0 1 170.666666-170.666667 42.666667 42.666667 0 1 1 0 85.333333z"
        p-id="2760"></path>
</svg>