<svg class="xmed-svg-root" viewBox="0 0 1024 1024" version="1.1" p-id="2758">
    <path
        d="M554.666667 512a42.666667 42.666667 0 0 1 42.666666-42.666667h170.666667a85.333333 85.333333 0 0 1 85.333333 85.333334v128a85.333333 85.333333 0 0 1-85.333333 85.333333h-128a85.333333 85.333333 0 0 1-85.333333-85.333333v-170.666667z m85.333333 42.666667v128h128v-128h-128zM170.666667 512a42.666667 42.666667 0 0 1 42.666666-42.666667h170.666667a85.333333 85.333333 0 0 1 85.333333 85.333334v128a85.333333 85.333333 0 0 1-85.333333 85.333333H256a85.333333 85.333333 0 0 1-85.333333-85.333333v-170.666667z m85.333333 42.666667v128h128v-128H256z"
        p-id="2759"></path>
    <path
        d="M725.333333 341.333333a85.333333 85.333333 0 0 0-85.333333 85.333334v85.333333a42.666667 42.666667 0 1 1-85.333333 0v-85.333333a170.666667 170.666667 0 0 1 170.666666-170.666667 42.666667 42.666667 0 1 1 0 85.333333zM341.333333 341.333333a85.333333 85.333333 0 0 0-85.333333 85.333334v85.333333a42.666667 42.666667 0 1 1-85.333333 0v-85.333333a170.666667 170.666667 0 0 1 170.666666-170.666667 42.666667 42.666667 0 1 1 0 85.333333z"
        p-id="2760"></path>
</svg>