<svg class="xmed-svg-root" viewBox="0 0 1024 1024" version="1.1" p-id="2061">
    <path
        d="M298.666667 512a42.666667 42.666667 0 0 1 42.666666-42.666667h234.666667a192 192 0 1 1 0 384H341.333333a42.666667 42.666667 0 1 1 0-85.333333h234.666667a106.666667 106.666667 0 0 0 0-213.333333H341.333333a42.666667 42.666667 0 0 1-42.666666-42.666667z"
        p-id="2062"></path>
    <path
        d="M341.333333 170.666667a42.666667 42.666667 0 0 1 42.666667 42.666666v597.333334a42.666667 42.666667 0 1 1-85.333333 0V213.333333a42.666667 42.666667 0 0 1 42.666666-42.666666z"
        p-id="2063"></path>
    <path
        d="M298.666667 213.333333a42.666667 42.666667 0 0 1 42.666666-42.666666h192a192 192 0 1 1 0 384H341.333333a42.666667 42.666667 0 1 1 0-85.333334h192a106.666667 106.666667 0 0 0 0-213.333333H341.333333a42.666667 42.666667 0 0 1-42.666666-42.666667z"
        p-id="2064"></path>
</svg>