<?xml version="1.0" standalone="no"?>
<!DOCTYPE svg PUBLIC "-//W3C//DTD SVG 1.1//EN" "http://www.w3.org/Graphics/SVG/1.1/DTD/svg11.dtd">
<svg t="1717319180952" class="icon" viewBox="0 0 1024 1024" version="1.1"
    xmlns="http://www.w3.org/2000/svg" p-id="2456" xmlns:xlink="http://www.w3.org/1999/xlink"
    width="25" height="25">
    <path
        d="M341.333333 725.333333a42.666667 42.666667 0 0 1 42.666667-42.666666h426.666667a42.666667 42.666667 0 1 1 0 85.333333H384a42.666667 42.666667 0 0 1-42.666667-42.666667zM170.666667 725.333333a42.666667 42.666667 0 0 1 42.666666-42.666666h0.085334a42.666667 42.666667 0 0 1 42.666666 42.666666v0.085334a42.666667 42.666667 0 0 1-42.666666 42.666666H213.333333a42.666667 42.666667 0 0 1-42.666666-42.666666V725.333333zM341.333333 512a42.666667 42.666667 0 0 1 42.666667-42.666667h426.666667a42.666667 42.666667 0 1 1 0 85.333334H384a42.666667 42.666667 0 0 1-42.666667-42.666667zM170.666667 512a42.666667 42.666667 0 0 1 42.666666-42.666667h0.085334a42.666667 42.666667 0 0 1 42.666666 42.666667v0.085333a42.666667 42.666667 0 0 1-42.666666 42.666667H213.333333a42.666667 42.666667 0 0 1-42.666666-42.666667V512zM341.333333 298.666667a42.666667 42.666667 0 0 1 42.666667-42.666667h426.666667a42.666667 42.666667 0 1 1 0 85.333333H384a42.666667 42.666667 0 0 1-42.666667-42.666666zM170.666667 298.666667a42.666667 42.666667 0 0 1 42.666666-42.666667h0.085334a42.666667 42.666667 0 0 1 42.666666 42.666667v0.085333a42.666667 42.666667 0 0 1-42.666666 42.666667H213.333333a42.666667 42.666667 0 0 1-42.666666-42.666667V298.666667z"
        p-id="2457"></path>
</svg>